Patient4_TMGait_0pt5_01_right_09_EMG.mot
version=1
nRows=23
nColumns=33
inDegrees=no
endheader
time	1LAddLong	2LGlutMax	3LGlutMed	4LIliopsoas	5LSemiMemb	6LBicFemLong	7LRecFem	8LVastMed	9LVastLat	10LGasMed	11LTibAnt	12lTibPost	13LPeroneusLong	14LSol	15LExtDigLong	16LFlexDigLong	17RAddLong	18RGlutMax	19RGlutMed	20RIliopsoas	21RSemiMemb	22RBicFemLong	23RRecFem	24RVastMed	25RVastLat	26RGasMed	27RTibAnt	28RTibPost	29RPeroneusLong	30RSol	31RExtDigLong	32RFlexDigLong
11.44	-0.020905	0.061951	0.10269	-0.016937	-0.03006	-0.080261	0.056763	0.021667	-0.032959	-0.18814	-0.049744	-0.028839	-0.10483	-0.13168	-0.21652	-0.009308	0.090179	-0.27771	0.37613	0.18097	-0.034637	-0.009155	0.15182	-0.065918	-0.005035	-0.002441	0.36529	-0.001373	-0.47958	-0.021057	-0.007172	-0.011597
11.441	-0.012817	0.032043	0.057678	-0.019531	-0.043488	-0.17258	0.0177	0.018158	-0.011292	-0.080261	-0.030212	-0.023804	-0.031738	-0.12283	-0.25711	-0.004425	0.046234	-0.30472	0.15884	0.095673	-0.035858	-0.0177	0.15305	-0.094757	-0.021362	-0.000305	0.059052	0.001068	-0.33722	-0.052643	-0.001221	-0.011749
11.442	-0.002594	0.021973	-0.094452	-0.009613	-0.051727	-0.10956	-0.004883	0.015717	0.011749	-0.019684	-0.006866	-0.019684	0.054779	-0.16449	-0.10361	-0.003662	0.016632	-0.36636	-0.092773	0.030518	-0.042725	-0.04303	0.25253	-0.07309	-0.020447	-0.002441	0.010834	-0.000153	0.018616	-0.13184	0.00351	-0.016785
11.443	0.009308	0.10361	-0.083008	-0.015259	-0.063019	0.10849	0.059814	0.012207	-0.020752	0.11154	-0.019684	-0.00885	0.15137	-0.027618	0.055542	-0.027313	-0.031281	-0.32028	-0.18112	0.000916	-0.016174	-0.017395	0.27252	-0.12817	0.001984	-0.009613	0.076141	-0.000305	-0.00946	-0.12726	-0.003052	-0.009918
11.444	0.003052	0.11078	-0.063934	-0.005646	-0.076599	0.21484	0.05188	0.010834	-0.006866	0.14633	-0.002136	-0.008545	0.22842	-0.011444	0.058746	-0.009308	-0.094147	-0.3508	-0.073547	-0.033722	0.026855	0.013733	0.28595	-0.10468	0.010223	-0.019073	0.022888	0.000458	0.17654	-0.13794	-0.001831	-0.017395
11.445	0.006561	0.12634	0.002441	0.04364	-0.090942	-0.27557	0.066223	0.01358	0.033112	0.14053	0.036011	-0.015106	-0.05722	-0.10941	0.10223	0.040741	-0.11658	-0.35614	-0.00412	-0.054932	0.05188	0.036469	0.27206	-0.032196	0.015259	-0.01236	-0.60532	-0.000153	0.53497	-0.15274	-0.002441	-0.017853
11.446	0.00824	0.095062	-0.070648	0.025635	0.031281	-0.27573	0.11383	0.004883	-0.022888	0.088654	0.035858	-0.014801	-0.27115	-0.041351	0.16769	0.00946	-0.1001	-0.32227	0.14847	-0.065613	0.035858	0.050201	0.22736	-0.032654	0.029449	-0.006561	-0.41031	-0.001526	0.32577	-0.18829	0.000153	-0.017395
11.447	0.006104	0.10025	0.002289	0.00351	0.072174	-0.062408	0.15854	0.011444	-0.063477	-0.017395	0.020142	-0.015259	0.38361	0.068359	0.12482	-0.13153	-0.083771	-0.38742	-0.06897	0.047302	0.020142	0.05127	0.19608	-0.080261	0.007019	-0.021667	-0.02655	-0.001373	-0.20966	-0.11398	-0.004883	-0.008698
11.448	0.011749	0.10666	-0.008545	-0.018158	0.030823	-0.063934	0.13916	0.00412	-0.036774	-0.007172	0.027618	-0.013275	0.89142	0.098572	0.035095	0.16388	-0.064087	-0.36209	-0.13718	0.13779	0.024872	0.046234	0.15823	-0.11734	-0.003052	-0.018768	-0.31189	-0.00061	-0.42053	-0.060883	0.001831	-0.013428
11.449	-0.000305	0.15198	-0.019073	-0.014954	0.028839	-0.17502	0.11353	0.011292	-0.025177	0.023041	0.013275	-0.006866	1.1192	-0.070496	-0.071564	0.1741	-0.048065	-0.37369	0.089569	0.16266	0.041199	0.040894	0.15152	-0.10635	-0.012512	-0.013428	-0.30121	0.002594	-0.43945	-0.17197	-0.006104	-0.015869
11.45	0.006561	0.15747	-0.037079	0.003967	0.019989	-0.36194	0.08728	0.016937	-0.056763	0.007477	-0.022888	-0.018005	0.95993	-0.037384	-0.020294	-0.09964	-0.036926	-0.401	0.15701	0.073853	0.040436	0.030212	0.15289	-0.11581	-0.032043	-0.003662	0.84259	0.001831	-0.56213	-0.26077	-0.00412	-0.021362
11.451	0.016937	0.15595	-0.090027	-0.010223	0.050049	-0.24933	0.067902	0.02182	-0.07843	-0.029602	-0.058899	-0.01297	-0.23941	0.11261	-0.007019	-0.13626	-0.020447	-0.36118	0.19943	-0.10605	0.039215	0.002441	0.18539	-0.076599	-0.040894	-0.000916	0.70877	0.000763	-0.10452	-0.2713	-0.000763	-0.009003
11.452	0.003967	0.1738	-0.036621	-0.002136	0.024261	0.077057	-0.001984	0.025482	-0.010529	-0.0177	-0.037384	-0.022888	-0.71991	0.13443	0.048065	-0.053558	-0.006256	-0.31876	0.2182	-0.11963	0.03891	0.00824	0.19806	-0.087738	-0.02243	0.006409	-0.38574	0.001984	0.28763	-0.26794	-0.002136	-0.010681
11.453	0.015411	0.19714	-0.00824	-0.002899	0.063324	0.19745	-0.007782	0.016479	0.11063	0.033875	0.011902	-0.005341	-0.28366	0.038757	-0.009766	-0.016327	-0.001373	-0.28885	0.15762	-0.11688	0.017853	-0.001068	0.12375	-0.063934	-0.033569	0.003967	-0.26306	-0.000916	0.23117	-0.16052	-0.00885	-0.013428
11.454	0.00885	0.22675	0.005035	0	0.097046	0.20859	-0.015411	0.013275	0.23086	0.023499	0.048676	-0.019073	0.34744	0.007324	-0.033569	-0.016479	-0.00061	-0.32684	0.16876	-0.060425	0.01236	-0.008545	0.038147	0.003204	-0.0177	-0.005188	-0.007477	-0.00061	0.35477	0.025482	-0.006561	-0.003357
11.455	-0.005188	0.22308	-0.008545	-0.006409	0.020752	0.28946	0.063629	0.010834	0.22934	-0.007477	0.026398	-0.014801	0.18417	0.015869	0.075073	-0.013123	-0.000153	-0.29617	0.060577	0.045624	0.005188	0.023041	0.093079	0.073547	0.015564	-0.015411	0.11002	-0.002136	0.23941	0.18921	-0.001221	-0.011902
11.456	-0.010529	0.22797	-0.014343	0.008392	-0.040588	0.25848	0.078888	0.011902	0.15106	0.010071	0.084686	-0.007629	0.034485	-0.018768	0.08728	-0.010529	-0.001221	-0.28534	0.13199	0.064697	-0.001068	0.022888	0.086823	0.068817	0.025177	-0.016937	-0.16647	-0.001373	0.07309	0.26657	0.001678	0.000916
11.457	0.002136	0.15747	0.023804	-0.021667	-0.061035	-0.031586	0.077209	0.001984	0.055084	-0.053101	0.089264	-0.020294	0.065613	0.004272	0.019989	-0.010529	0.008087	-0.24612	0.23499	0.013275	-0.002441	0.02655	-0.018005	0.015259	0.02121	-0.013123	-0.36438	-0.000763	-0.16159	0.29373	-0.00473	0.008392
11.458	0.002136	0.15442	0.050812	-0.011902	-0.035553	-0.24063	0.077667	0.003204	-0.10117	-0.095673	0.015411	-0.009613	0.30868	0.062256	0.039063	-0.003357	0.008087	-0.28976	0.47058	-0.029144	-0.021362	0.029602	-0.10513	0.009613	0.012817	0.00061	-0.055695	0.002289	-0.17136	0.21591	-0.008392	0.010834
11.459	0.01709	0.1294	0.074768	-0.005798	-0.046844	-0.53513	0.085907	0.000305	-0.040588	-0.041809	0.18341	-0.019836	-0.22308	0.15671	0.076752	-0.016785	0.029449	-0.28915	0.2179	0.045319	-0.009308	0.040436	-0.098419	-0.067139	0.019836	-0.013123	0.16296	-0.004578	0.080719	0.13809	-0.007629	0.013428
11.46	0.015564	0.13596	0.054016	0.009766	0.009766	-0.82443	0.096436	-0.001221	-0.039368	0.10223	0.24796	-0.009918	-0.68466	0.14679	-0.11108	-0.017395	0.042419	-0.25955	-0.078278	0.026093	0.000763	0.032959	0.009918	-0.063019	0.029755	-0.01236	0.22903	0.002289	-0.046539	0.11795	-0.00061	0.006561
11.461	0.018158	0.1033	0.046997	0.005646	0.095367	-0.42602	0.10727	0.003967	-0.15335	0.16342	0.036316	-0.006561	-0.35629	0.085754	-0.25452	0	0.029449	-0.23285	-0.16678	-0.014038	0.003967	0.039368	-0.014801	-0.048523	0.027161	-0.013885	0.53833	-0.001526	-0.21408	0.1033	-0.001221	0.005951
11.462	0.019073	0.11139	0.027771	0.010986	0.080414	0.069122	0.071564	-0.014954	-0.057526	0.10773	-0.25772	-0.015106	0.51178	0.10193	-0.12878	0.000305	0.020752	-0.2945	-0.11032	-0.071411	-0.00061	0.026093	0.071716	-0.080719	0.026855	-0.015564	0.54779	0.000305	-0.27283	0.14755	-0.007477	0.010376
